<svg id="layer_1" data-name="layer 1" xmlns="http://www.w3.org/2000/svg" xmlns:xlink="http://www.w3.org/1999/xlink" viewBox="0 0 217.56 231.29"><defs><style>.cls-1,.cls-3{fill:none;}.cls-2{clip-path:url(#clip-path);}.cls-3{stroke:#fff;stroke-miterlimit:10;stroke-width:3.6px;}.cls-4{fill:#fff;}.cls-5{opacity:0.21;}.cls-6{clip-path:url(#clip-path-4);}</style><clipPath id="clip-path" transform="translate(-30.06 -24.94)"><rect class="cls-1" x="0.19" y="0.61" width="259.21" height="259.21"/></clipPath><clipPath id="clip-path-4" transform="translate(-30.06 -24.94)"><rect class="cls-1" x="117.91" y="126.52" width="129.71" height="129.71"/></clipPath></defs><g class="cls-2"><g class="cls-2"><rect x="1.8" y="1.8" width="199.55" height="199.55"/><rect class="cls-3" x="1.8" y="1.8" width="199.55" height="199.55"/><path class="cls-4" d="M78.7,97.8V63.62H91.11V98.79c0,16.06-8.11,21.93-21.6,21.93a33.75,33.75,0,0,1-7.94-.91V104.67h.25c1.49,2.81,4.05,4.13,7.69,4.13C78.37,108.8,78.7,103.67,78.7,97.8Z" transform="translate(-30.06 -24.94)"/><path class="cls-4" d="M145.49,63.62V98c0,15-8.61,22.76-23.25,22.76S99,112.94,99,98V63.62h12.41V96.14c0,7.78,2.4,12.17,10.85,12.17s10.84-4.39,10.84-12.17V63.62Z" transform="translate(-30.06 -24.94)"/><path class="cls-4" d="M186,119.89,166.6,84.8v35.09H154.19V63.62H166.6L186,98.71V63.62h12.41v56.27Z" transform="translate(-30.06 -24.94)"/><path class="cls-4" d="M83.83,202.67H71.42V146.39H83.83v25.16l17.8-25.16h15.89l-21.6,28.14,22.42,28.14H101.63l-17.8-25.16Z" transform="translate(-30.06 -24.94)"/><path class="cls-4" d="M160.81,202.67l-4.06-11.34H135.31l-4.05,11.34H117.93l22.85-56.28h10.51l22.84,56.28ZM146,161.12l-7.12,20h14.24Z" transform="translate(-30.06 -24.94)"/><path class="cls-4" d="M179.51,202.67V146.39h12.42v56.28Z" transform="translate(-30.06 -24.94)"/><g class="cls-2"><g class="cls-5"><g class="cls-6"><path class="cls-4" d="M247.61,191.37a64.85,64.85,0,1,1-64.85-64.85,64.84,64.84,0,0,1,64.85,64.85" transform="translate(-30.06 -24.94)"/></g></g></g></g></g></svg>